<?xml version="1.0" encoding="UTF-8"?>
<svg id="Layer_2" data-name="Layer 2" xmlns="http://www.w3.org/2000/svg" viewBox="0 0 796.71 166.05">
  <defs>
    <style>
      .cls-1 {
        fill: #f9c041;
      }

      .cls-2 {
        fill: #063847;
      }

      .cls-3 {
        fill: #199e41;
      }

      .cls-4 {
        fill: #f78757;
      }
    </style>
  </defs>
  <g id="Layer_1-2" data-name="Layer 1">
    <g>
      <g>
        <path class="cls-4" d="M96,0c-18.18,0-32.96,14.78-32.96,32.96v32.95h32.96c18.16,0,32.95-14.78,32.95-32.95S114.16,0,96,0ZM89.98,47.3c-.72.71-1.65,1.06-2.58,1.06s-1.87-.35-2.59-1.06l-11.21-11.22c-.28-.28-.47-.64-.51-1.04-.06-.68-.09-1.36-.09-2.05,0-1.86.23-3.66.65-5.38.35-1.37,2.1-1.77,3.03-.71l13.46,15.41c1.27,1.45,1.2,3.63-.16,4.99ZM101.34,35.93c-1.36,1.36-3.53,1.42-4.98.16l-17.57-15.37c-.73-.64-.82-1.75-.18-2.47,1.3-1.46,2.8-2.75,4.44-3.82.7-.45,1.61-.35,2.2.24l16.09,16.09c.72.72,1.08,1.65,1.08,2.58s-.36,1.87-1.08,2.59ZM109.97,49.4l4.35-14.45c.2-.67-.02-1.4-.56-1.85l-22.68-18.94c-1.17-.98-.62-2.87.89-3.09,1.03-.15,2.09-.22,3.16-.22,12.22,0,22.14,9.9,22.14,22.14,0,6.51-2.81,12.37-7.3,16.41Z"/>
        <path class="cls-1" d="M36.07,92.9c-18.17,0-32.96,14.78-32.96,32.95s14.79,32.96,32.96,32.96,32.95-14.78,32.95-32.96v-32.95h-32.95ZM30.27,142c-.71.71-1.64,1.06-2.58,1.06s-1.87-.35-2.58-1.06l-11.21-11.22c-.28-.28-.47-.64-.51-1.04-.07-.67-.1-1.36-.1-2.05,0-1.86.23-3.66.66-5.38.34-1.36,2.1-1.77,3.03-.71l13.46,15.41c1.27,1.45,1.19,3.63-.17,4.99ZM41.64,130.63c-1.36,1.36-3.53,1.43-4.99.17l-17.56-15.38c-.73-.64-.82-1.75-.18-2.47,1.3-1.46,2.79-2.74,4.44-3.82.69-.45,1.61-.34,2.2.24l16.09,16.09c.72.72,1.08,1.65,1.08,2.58s-.36,1.87-1.08,2.59ZM50.27,144.1l4.35-14.44c.2-.68-.02-1.41-.56-1.86l-22.68-18.94c-1.17-.97-.62-2.87.89-3.09,1.03-.15,2.08-.22,3.16-.22,12.22,0,22.14,9.91,22.14,22.14,0,6.51-2.81,12.37-7.3,16.41Z"/>
        <path class="cls-3" d="M104.55,72.39H27.16c-7.47,0-13.5-6.27-13.12-13.83.33-6.68,5.84-12.17,12.53-12.47h10.95l-4.52,4.1,7.9,8.69,21.8-19.81-21.8-19.81-7.9,8.69,4.52,4.11h-10.53c-.66,0-1.31.03-1.98.08C11.73,33.17,1.02,43.95.07,57.25c-1.15,15.87,11.44,29.16,27.09,29.16h33.13s44.26.01,44.26.01c7.47,0,13.51,6.27,13.13,13.82-.33,6.69-5.85,12.17-12.53,12.47-.15.01-.29.01-.43.01h-10.52l4.51-4.11-7.9-8.69-21.79,19.81,21.79,19.81,7.9-8.69-4.51-4.11h10.52c.66,0,1.31-.02,1.98-.08,13.28-1.03,23.99-11.81,24.95-25.1,1.15-15.87-11.45-29.17-27.1-29.17ZM42.21,38.98l.1.09-.1.09v-.18ZM86.58,119.82l-.1-.09.1-.09v.18Z"/>
      </g>
      <g>
        <path class="cls-2" d="M223.38,84.48c-1.72-2.09-3.35-3.83-4.84-5.17-1.5-1.35-3.64-2.86-6.36-4.49-2.7-1.62-4.75-2.78-6.09-3.47-1.33-.68-3.6-1.79-6.8-3.34h-.01c-2.83-1.3-5.06-2.37-6.62-3.19-1.56-.81-3.3-1.86-5.18-3.09-1.86-1.23-3.33-2.46-4.36-3.68-3.05-3.47-3.44-7.02-1.18-10.85,1.06-1.8,2.65-3.38,4.73-4.69,2.06-1.3,4.52-1.98,7.3-2.02h.15c5.89,0,10.08,2.66,12.79,8.09l2.67,6.75,17.82-7.68-2.91-6.6c-3.22-6.49-7.4-11.39-12.42-14.55-5.02-3.16-11.21-4.76-18.39-4.76-6.22.05-11.83,1.65-16.68,4.77-4.84,3.11-8.58,6.84-11.13,11.1-3.14,5.25-4.46,10.9-3.92,16.79.54,5.89,2.88,11.24,6.95,15.9,1.86,2.15,4.18,4.22,6.92,6.15,2.71,1.91,5.15,3.45,7.24,4.57,2.08,1.11,4.82,2.46,8.15,4,2.82,1.34,5,2.41,6.48,3.18,1.46.77,3.24,1.8,5.3,3.07,2.03,1.26,3.68,2.55,4.9,3.83,1.22,1.29,2.19,2.67,2.88,4.1,1.38,3.13,1.33,6.44-.14,9.8-1.49,3.12-3.83,5.45-6.97,6.94-3.18,1.51-6.78,2.27-10.7,2.27-8,0-14.87-4.12-20.39-12.25l-4.11-6.21-16.53,8.84,4.89,7.45c4.43,6.61,9.81,11.83,15.99,15.51,6.2,3.68,13.22,5.55,20.9,5.55h0c4.91-.19,9.52-1,13.68-2.39,4.18-1.39,8.1-3.61,11.64-6.59,3.55-2.99,6.39-6.73,8.45-11.14,3.97-8.48,4.02-17.12.15-25.7-1.08-2.4-2.51-4.69-4.25-6.8Z"/>
        <path class="cls-2" d="M345.11,55.47l-.26.71-27.09,71.83c-.76,2.01-2.09,3.69-3.79,4.85-1.68,1.17-3.71,1.83-5.86,1.83-4.42,0-8.35-2.82-9.77-7.01l-12.59-37.18-14.07,37.49c-1.51,4.03-5.36,6.69-9.66,6.69h-.14c-4.34,0-8.22-2.73-9.7-6.81l-26.15-72.41h19.98l16.11,44.44,16.62-44.44h14.96l14.82,43.81,16.45-43.81h20.14Z"/>
        <path class="cls-2" d="M796.71,55.47l-.26.71-27.09,71.83c-.76,2.01-2.1,3.69-3.79,4.85-1.68,1.17-3.73,1.83-5.86,1.83-4.42,0-8.35-2.82-9.77-7.01l-12.59-37.18-14.08,37.49c-1.5,4.03-5.36,6.69-9.65,6.69h-.14c-4.34,0-8.22-2.73-9.7-6.81l-26.16-72.41h20l16.11,44.44,16.61-44.44h14.97l14.82,43.81,16.45-43.81h20.14Z"/>
        <path class="cls-2" d="M404.04,55.47v6.4c-2.83-2.63-6.22-4.7-10.1-6.18-4.3-1.64-8.69-2.47-13.04-2.47-7.51,0-14.56,1.88-20.95,5.59-6.39,3.71-11.52,8.82-15.25,15.21-3.73,6.4-5.62,13.47-5.62,21.03s1.89,14.57,5.62,20.98c3.73,6.42,8.86,11.56,15.25,15.29,6.39,3.73,13.44,5.62,20.95,5.62,4.35,0,8.7-.81,12.93-2.42,3.84-1.47,7.27-3.48,10.21-6v6.18h18.76V55.47h-18.76ZM397.03,112.03c-4.64,4.85-10.06,7.31-16.13,7.31s-11.48-2.46-16.09-7.31c-2.31-2.43-4.06-5.07-5.22-7.91-1.17-2.84-1.75-5.86-1.75-9.07,0-6.51,2.34-12.27,6.97-17.13,4.61-4.85,10.03-7.31,16.09-7.31s11.49,2.46,16.13,7.31c4.65,4.86,7.01,10.62,7.01,17.13s-2.36,12.12-7.01,16.98Z"/>
        <path class="cls-2" d="M509.35,74.1c-3.74-6.39-8.88-11.52-15.29-15.25-6.42-3.73-13.48-5.63-20.99-5.63-4.29,0-8.67.81-12.99,2.39-3.91,1.44-7.29,3.45-10.07,5.98v-6.12h-18.76v110.58h18.76v-37.88c2.82,2.66,6.21,4.77,10.1,6.27,4.3,1.66,8.66,2.5,12.96,2.5,5.61,0,11.07-1.12,16.21-3.34,5.15-2.22,9.65-5.24,13.38-8.97,3.73-3.73,6.75-8.23,8.96-13.37,2.22-5.15,3.35-10.6,3.35-16.21,0-7.51-1.89-14.56-5.62-20.95ZM489.2,112.11c-4.64,4.9-10.07,7.38-16.13,7.38s-11.48-2.47-16.09-7.35c-4.63-4.88-6.97-10.63-6.97-17.09s2.34-12.13,6.97-16.99c4.61-4.85,10.03-7.31,16.09-7.31s11.49,2.46,16.13,7.31c4.65,4.86,7.01,10.58,7.01,16.99s-2.36,12.15-7.01,17.06Z"/>
        <path class="cls-2" d="M555.71,53.22c-10.51,0-19.06,3.44-25.42,10.22-6.35,6.77-9.58,15.57-9.58,26.16v45.09h18.76v-45.09c0-2.93.38-5.53,1.13-7.74.75-2.19,1.68-3.91,2.79-5.11,1.11-1.2,2.45-2.19,3.98-2.93,1.55-.75,2.98-1.25,4.26-1.48,2.54-.46,5.45-.48,8.09,0,1.28.23,2.71.73,4.26,1.48,1.53.74,2.85,1.73,3.94,2.93,1.09,1.2,2.03,2.93,2.8,5.12.77,2.21,1.17,4.81,1.17,7.74v45.09h18.69v-45.09c0-10.54-3.2-19.33-9.5-26.13-6.32-6.81-14.85-10.26-25.35-10.26Z"/>
        <path class="cls-2" d="M674.79,74.1c-3.73-6.39-8.87-11.52-15.28-15.25-6.42-3.73-13.48-5.63-20.99-5.63s-14.56,1.9-20.95,5.63c-6.39,3.73-11.52,8.86-15.25,15.25-3.73,6.39-5.62,13.44-5.62,20.95s1.89,14.57,5.62,20.98c3.73,6.42,8.86,11.56,15.25,15.29,6.39,3.73,13.44,5.62,20.95,5.62,5.61,0,11.07-1.12,16.21-3.34,5.15-2.22,9.65-5.24,13.38-8.97,3.73-3.73,6.75-8.23,8.96-13.37,2.22-5.15,3.35-10.6,3.35-16.21,0-7.51-1.89-14.56-5.63-20.95ZM654.84,111.3c-4.52,4.47-10.01,6.74-16.32,6.74s-11.79-2.28-16.29-6.78-6.77-9.95-6.77-16.21,2.28-11.85,6.77-16.32c4.5-4.48,9.98-6.75,16.29-6.75s11.8,2.27,16.32,6.75c4.53,4.47,6.82,9.96,6.82,16.32s-2.29,11.77-6.82,16.25Z"/>
      </g>
    </g>
  </g>
</svg>