<?xml version="1.0" encoding="UTF-8"?>
<svg id="Layer_2" data-name="Layer 2" xmlns="http://www.w3.org/2000/svg" viewBox="0 0 411.81 496.48">
  <defs>
    <style>
      .cls-1 {
        fill: #f9c041;
      }

      .cls-2 {
        fill: #199e41;
      }

      .cls-3 {
        fill: #f78757;
      }
    </style>
  </defs>
  <g id="Layer_1-2" data-name="Layer 1">
    <g>
      <path class="cls-3" d="M300.13,0c-56.84,0-103.04,46.21-103.04,103.04v103.01h103.04c56.77,0,103.01-46.21,103.01-103.01S356.9,0,300.13,0ZM281.31,147.87c-2.25,2.22-5.16,3.31-8.07,3.31s-5.85-1.09-8.1-3.31l-35.05-35.08c-.87-.88-1.47-2-1.59-3.25-.19-2.13-.28-4.25-.28-6.41,0-5.82.72-11.44,2.03-16.82,1.09-4.28,6.57-5.53,9.47-2.22l42.08,48.18c3.97,4.53,3.75,11.35-.5,15.6ZM316.82,112.33c-4.25,4.25-11.04,4.44-15.57.5l-54.93-48.05c-2.28-2-2.56-5.47-.56-7.72,4.06-4.56,8.75-8.6,13.88-11.94,2.19-1.41,5.03-1.09,6.88.75l50.3,50.3c2.25,2.25,3.38,5.16,3.38,8.07s-1.13,5.85-3.38,8.1ZM343.8,154.44l13.6-45.17c.62-2.09-.06-4.38-1.75-5.78l-70.9-59.21c-3.66-3.06-1.94-8.97,2.78-9.66,3.22-.47,6.53-.69,9.88-.69,38.2,0,69.22,30.95,69.22,69.22,0,20.35-8.78,38.67-22.82,51.3Z"/>
      <path class="cls-1" d="M112.77,290.43c-56.8,0-103.04,46.21-103.04,103.01s46.24,103.04,103.04,103.04,103.01-46.21,103.01-103.04v-103.01h-103.01ZM94.64,443.93c-2.22,2.22-5.13,3.31-8.07,3.31s-5.85-1.09-8.07-3.31l-35.05-35.08c-.88-.88-1.47-2-1.59-3.25-.22-2.09-.31-4.25-.31-6.41,0-5.81.72-11.44,2.06-16.82,1.06-4.25,6.57-5.53,9.47-2.22l42.08,48.18c3.97,4.53,3.72,11.35-.53,15.6ZM130.19,408.38c-4.25,4.25-11.04,4.47-15.6.53l-54.9-48.08c-2.28-2-2.56-5.47-.56-7.72,4.06-4.56,8.72-8.57,13.88-11.94,2.16-1.41,5.03-1.06,6.88.75l50.3,50.3c2.25,2.25,3.38,5.16,3.38,8.07s-1.13,5.85-3.38,8.1ZM157.17,450.49l13.6-45.14c.63-2.13-.06-4.41-1.75-5.81l-70.9-59.21c-3.66-3.03-1.94-8.97,2.78-9.66,3.22-.47,6.5-.69,9.88-.69,38.2,0,69.22,30.98,69.22,69.22,0,20.35-8.78,38.67-22.82,51.3Z"/>
      <path class="cls-2" d="M326.86,226.31H84.92c-23.35,0-42.2-19.6-41.02-43.24,1.03-20.88,18.26-38.05,39.17-38.98h34.23l-14.13,12.82,24.7,27.17,68.15-61.93-68.15-61.93-24.7,27.17,14.13,12.85h-32.92c-2.06,0-4.1.09-6.19.25C36.68,103.7,3.2,137.4.23,178.98c-3.6,49.61,35.76,91.16,84.69,91.16h103.57v.03h138.37c23.35,0,42.24,19.6,41.05,43.21-1.03,20.91-18.29,38.05-39.17,38.98-.47.03-.91.03-1.34.03h-32.89l14.1-12.85-24.7-27.17-68.12,61.93,68.12,61.93,24.7-27.17-14.1-12.85h32.89c2.06,0,4.1-.06,6.19-.25,41.52-3.22,75-36.92,78-78.47,3.6-49.61-35.8-91.19-84.72-91.19ZM131.97,121.86l.31.28-.31.28v-.56ZM270.68,374.59l-.31-.28.31-.28v.56Z"/>
    </g>
  </g>
</svg>